<svg version="1.1" id="Layer_1" xmlns="http://www.w3.org/2000/svg" xmlns:xlink="http://www.w3.org/1999/xlink" x="0px" y="0px"
	 width="100%" viewBox="0 0 308 380" enable-background="new 0 0 308 380" xml:space="preserve">
<path fill="#FFFFFF" opacity="0" stroke="none" 
	d="
M1.000000,144.000000 
	C1.000000,96.017258 1.000000,48.534519 1.000000,1.025889 
	C103.612099,1.025889 206.224197,1.025889 308.918152,1.025889 
	C308.918152,127.566032 308.918152,254.132141 308.918152,380.849121 
	C206.333496,380.849121 103.666779,380.849121 1.000000,380.849121 
	C1.000000,302.109222 1.000000,223.304611 1.000000,144.000000 
M167.501892,64.142464 
	C167.364960,64.439827 167.228043,64.737190 167.013062,65.019463 
	C167.013062,65.019463 167.055786,65.086502 166.490250,65.325676 
	C165.967758,66.191811 165.445267,67.057945 164.347900,68.230980 
	C163.271851,69.846260 162.195801,71.461540 161.021622,73.062714 
	C161.021622,73.062714 161.088608,73.135826 160.585205,73.418816 
	C160.360565,73.935661 160.135910,74.452499 159.987305,74.989212 
	C159.987305,74.989212 159.944290,74.923439 159.344086,75.173874 
	C158.551926,76.444046 157.759781,77.714226 157.003586,78.998947 
	C157.003586,78.998947 156.986633,78.963951 156.490250,79.126274 
	C156.363037,79.432274 156.235840,79.738274 156.023743,80.042763 
	C156.023743,80.042763 156.074997,80.110435 155.516418,80.445702 
	C154.636108,81.933800 153.755798,83.421898 152.970718,85.004234 
	C152.970718,85.004234 152.900085,84.890518 152.317078,85.142715 
	C151.832001,86.063492 151.346924,86.984261 150.952927,87.967445 
	C150.952927,87.967445 150.911545,87.865067 150.402054,88.045624 
	C150.282776,88.371185 150.163498,88.696754 149.995987,89.007690 
	C149.995987,89.007690 150.034317,89.041420 149.509567,89.318695 
	C149.285675,89.852287 149.061798,90.385880 148.957733,90.958534 
	C148.957733,90.958534 148.868820,90.869209 148.284897,91.153542 
	C147.412537,92.599007 146.540176,94.044479 145.634964,95.587257 
	C145.634964,95.587257 145.587051,95.678116 145.149139,95.961433 
	C145.065155,96.294075 144.981171,96.626717 144.984238,96.976845 
	C144.984238,96.976845 144.926086,96.909721 144.328949,97.203354 
	C143.492981,98.757195 142.657013,100.311035 141.918365,101.938591 
	C141.918365,101.938591 141.880585,101.822502 141.369980,102.011879 
	C141.235825,102.340103 141.101685,102.668320 141.005600,103.000656 
	C141.005600,103.000656 140.990738,102.965370 140.515625,103.159706 
	C140.400650,103.460953 140.285675,103.762199 140.058609,104.102104 
	C140.058609,104.102104 140.116211,104.205757 139.662628,104.534149 
	C139.440369,105.026009 139.218124,105.517876 138.509155,106.477493 
	C128.208908,125.624184 117.045265,144.366394 107.835884,164.024124 
	C97.293930,186.526321 88.487961,209.841766 78.427742,233.311539 
	C78.205650,234.229660 77.983559,235.147797 77.680504,236.193634 
	C77.680504,236.193634 77.714233,236.341034 77.187820,236.859924 
	C76.817780,238.249847 76.447739,239.639755 75.871292,241.323486 
	C75.871292,241.323486 75.883270,241.682358 75.322372,242.144501 
	C74.861069,243.747940 74.399765,245.351379 73.987518,247.004150 
	C73.987518,247.004150 73.948174,246.951401 73.360527,247.382919 
	C70.680328,255.397095 67.825897,263.358002 65.357170,271.436829 
	C60.601376,286.999969 56.324909,302.707733 55.670547,319.084076 
	C55.395012,325.979767 55.071297,333.093140 60.004353,338.993866 
	C60.004353,338.993866 60.068222,338.970184 60.277760,339.571472 
	C61.445770,340.783447 62.613785,341.995422 63.921658,343.069794 
	C63.921658,343.069794 63.748177,343.161438 63.900311,343.822662 
	C65.911560,345.565125 67.922813,347.307587 69.982002,349.004761 
	C69.982002,349.004761 69.955750,349.064941 70.273422,349.710571 
	C81.380737,355.448792 92.352623,353.911865 103.950920,349.018433 
	C107.888657,346.021210 112.837593,343.741608 115.571213,339.889771 
	C123.233696,329.092896 130.164917,317.756683 136.971222,306.385773 
	C138.844772,303.255707 140.730377,300.996521 144.343124,300.556885 
	C154.866653,299.276123 163.043732,293.863586 170.892136,286.998474 
	C177.013153,281.644287 184.408096,277.746460 192.056961,272.655670 
	C192.215042,275.409821 192.388504,276.550415 192.328766,277.678680 
	C191.643646,290.617371 190.929153,303.554565 190.209259,316.491394 
	C189.880173,322.405212 189.743713,328.319427 194.933395,332.529419 
	C208.746384,343.734833 236.140823,343.462006 249.552994,331.846191 
	C251.819229,329.883514 254.368698,327.188049 254.896500,324.464691 
	C256.980682,313.710388 258.647247,302.847534 259.860748,291.957214 
	C263.876404,255.918640 267.803833,219.868240 271.409485,183.786850 
	C273.328094,164.587219 274.514130,145.314377 276.392578,125.342667 
	C277.937164,108.950844 279.431793,92.554085 281.049774,76.169510 
	C281.743011,69.149597 278.342468,63.988705 273.584564,59.600513 
	C270.694427,56.934975 267.241455,54.879719 264.287689,52.729637 
	C264.929749,49.813999 265.525513,47.108574 266.068695,44.317398 
	C266.068695,44.317398 266.168854,44.307972 266.701508,43.692394 
	C267.477936,35.592484 264.022430,29.839396 256.597534,25.641951 
	C256.080811,25.429546 255.564102,25.217140 254.645111,24.414455 
	C242.055527,18.622814 229.205917,16.911905 215.993668,21.995136 
	C215.993668,21.995136 215.954071,21.922733 215.240448,21.971558 
	C213.343384,22.933697 211.446335,23.895836 209.250046,24.849836 
	C209.250046,24.849836 209.046829,25.069637 208.452271,25.090778 
	C208.177231,25.355255 207.902176,25.619732 207.301392,25.899765 
	C207.301392,25.899765 207.074097,26.133610 206.435013,26.138597 
	C205.601227,26.739506 204.767441,27.340414 204.001846,27.993471 
	C204.001846,27.993471 203.949875,27.924908 203.288528,27.973410 
	C202.193802,28.648066 201.099060,29.322721 199.999908,29.999308 
	C199.999908,29.999308 199.995834,30.001587 199.284958,30.049444 
	C195.808014,32.994640 192.331085,35.939838 188.963470,39.001587 
	C188.963470,39.001587 188.879898,38.865467 188.271225,39.103958 
	C186.845291,40.734917 185.419342,42.365871 183.438507,44.281292 
	C182.589798,45.444572 181.741074,46.607857 180.301285,48.090645 
	C178.838882,50.038776 177.376480,51.986908 175.982285,53.991779 
	C175.982285,53.991779 175.953766,53.907772 175.431717,54.051998 
	C175.273529,54.362309 175.115356,54.672623 175.001953,54.998192 
	C175.001953,54.998192 174.972656,54.960930 174.373489,55.206982 
	C173.554291,56.451477 172.735092,57.695976 171.981049,58.996429 
	C171.981049,58.996429 171.953537,58.915054 171.425156,59.046349 
	C171.280746,59.363670 171.136322,59.680992 171.000610,60.000153 
	C171.000610,60.000153 170.996933,59.991497 170.512070,60.154949 
	C170.384964,60.452110 170.257858,60.749275 170.047531,61.058891 
	C170.047531,61.058891 170.081131,61.136040 169.560135,61.393948 
	C169.333008,61.910076 169.105865,62.426205 168.964355,62.971252 
	C168.964355,62.971252 168.926849,62.889038 168.402954,63.029930 
	C168.264725,63.350651 168.126511,63.671371 168.000000,64.000000 
	C168.000000,64.000000 167.990997,63.988701 167.501892,64.142464 
z"/>
<path fill="#0674D9" opacity="1.000000" stroke="none" 
	d="
M77.714233,236.341034 
	C77.714233,236.341034 77.680504,236.193634 78.035202,235.925140 
	C78.569183,234.705719 78.748466,233.754791 78.927750,232.803879 
	C88.487961,209.841766 97.293930,186.526321 107.835884,164.024124 
	C117.045265,144.366394 128.208908,125.624184 138.995026,106.099319 
	C139.692673,105.216019 139.904434,104.710884 140.116211,104.205757 
	C140.116211,104.205757 140.058609,104.102104 140.323944,103.961670 
	C140.845673,103.593460 140.979507,103.308174 140.990738,102.965370 
	C140.990738,102.965370 141.005600,103.000656 141.227539,102.882301 
	C141.593185,102.450127 141.736877,102.136314 141.880585,101.822502 
	C141.880585,101.822502 141.918365,101.938591 142.275787,101.936584 
	C146.300262,101.584160 144.627991,98.797401 144.926086,96.909721 
	C144.926086,96.909721 144.984238,96.976845 145.190735,96.844444 
	C145.460510,96.367401 145.523773,96.022758 145.587051,95.678116 
	C145.587051,95.678116 145.634964,95.587257 145.976303,95.773361 
	C147.382111,96.242538 148.446579,96.525620 150.003494,96.939659 
	C149.514969,94.326073 149.191895,92.597641 148.868820,90.869209 
	C148.868820,90.869209 148.957733,90.958534 149.181259,90.822723 
	C149.614624,90.138412 149.824463,89.589912 150.034317,89.041420 
	C150.034317,89.041420 149.995987,89.007690 150.251831,88.898178 
	C150.642303,88.480804 150.776932,88.172935 150.911545,87.865067 
	C150.911545,87.865067 150.952927,87.967445 151.272156,87.918968 
	C152.027618,86.877167 152.463852,85.883842 152.900085,84.890518 
	C152.900085,84.890518 152.970718,85.004234 153.294098,84.950607 
	C154.436646,83.301468 155.255829,81.705956 156.074997,80.110435 
	C156.074997,80.110435 156.023743,80.042763 156.289032,79.935242 
	C156.830887,79.606102 156.974991,79.318176 156.986633,78.963951 
	C156.986633,78.963951 157.003586,78.998947 157.323792,79.007828 
	C158.095093,79.001236 158.546188,78.985756 158.996979,79.357689 
	C158.732483,81.568428 158.468307,83.391747 158.077835,86.086868 
	C161.155502,83.259880 164.312149,81.370583 159.985962,77.610802 
	C159.975983,76.458931 159.960144,75.691185 159.944290,74.923439 
	C159.944290,74.923439 159.987305,74.989212 160.221588,74.860550 
	C160.666779,74.199875 160.877701,73.667847 161.088608,73.135826 
	C161.088608,73.135826 161.021622,73.062714 161.425720,73.062851 
	C162.881500,72.706177 163.933197,72.349358 165.263092,71.868164 
	C166.020950,70.493484 166.500580,69.243172 166.987152,67.629425 
	C167.014648,66.539482 167.035217,65.812996 167.055786,65.086502 
	C167.055786,65.086502 167.013062,65.019463 167.282059,64.933182 
	C167.839630,64.633598 167.986282,64.347534 167.990997,63.988701 
	C167.990997,63.988701 168.000000,64.000000 168.237793,63.899323 
	C168.626022,63.495445 168.776428,63.192242 168.926849,62.889038 
	C168.926849,62.889038 168.964355,62.971252 169.199707,62.850533 
	C169.650406,62.198555 169.865768,61.667297 170.081131,61.136040 
	C170.081131,61.136040 170.047531,61.058891 170.313248,60.953545 
	C170.855896,60.629784 170.995224,60.344215 170.996933,59.991497 
	C170.996933,59.991497 171.000610,60.000153 171.234970,59.899254 
	C171.630737,59.503922 171.792145,59.209488 171.953537,58.915054 
	C171.953537,58.915054 171.981049,58.996429 172.314438,58.962955 
	C173.422760,57.606632 174.197708,56.283779 174.972656,54.960930 
	C174.972656,54.960930 175.001953,54.998192 175.223602,54.895172 
	C175.614746,54.497360 175.784256,54.202568 175.953766,53.907772 
	C175.953766,53.907772 175.982285,53.991779 176.294464,53.996624 
	C177.070129,54.002331 177.533630,54.003197 178.189194,54.255440 
	C179.564484,53.669170 180.747696,52.831524 181.936935,51.662155 
	C181.942017,50.888084 181.941086,50.445732 182.009949,49.666779 
	C182.979187,49.011776 183.909653,48.759350 184.768951,48.355515 
	C185.551117,47.987926 186.256012,47.455914 187.214142,46.887268 
	C187.708313,46.579224 187.895477,46.317478 188.364105,45.984161 
	C189.233109,45.060017 190.180695,44.119919 190.131836,43.234810 
	C190.050446,41.759827 189.330811,40.320061 188.879898,38.865467 
	C188.879898,38.865467 188.963470,39.001587 189.277695,38.952766 
	C193.059891,35.936493 196.527863,32.969044 199.995834,30.001591 
	C199.995834,30.001587 199.999908,29.999308 200.381149,30.016346 
	C201.824890,29.330561 202.887390,28.627737 203.949875,27.924911 
	C203.949875,27.924908 204.001846,27.993471 204.318695,27.997978 
	C205.448395,27.379530 206.261246,26.756575 207.074097,26.133614 
	C207.074097,26.133610 207.301392,25.899765 207.752609,25.862633 
	C208.484818,25.573547 208.765823,25.321590 209.046829,25.069635 
	C209.046829,25.069637 209.250046,24.849836 209.822571,24.903088 
	C213.310989,25.675009 216.226883,26.393681 219.617126,27.229269 
	C217.980652,24.858574 216.967361,23.390654 215.954071,21.922733 
	C215.954071,21.922733 215.993668,21.995136 216.380493,21.999384 
	C219.304367,22.421776 221.841415,22.839922 224.693420,23.309975 
	C228.618301,19.793575 231.485840,21.113577 237.357346,23.530451 
	C242.572647,25.677210 249.099472,24.637789 255.047394,25.004738 
	C255.564102,25.217140 256.080811,25.429546 256.722595,26.199110 
	C256.007416,27.550642 255.167206,28.345015 255.164566,28.347506 
	C257.492981,29.921667 261.099854,31.043062 261.518890,32.888371 
	C262.819366,38.615166 265.550171,44.477421 262.460632,50.603516 
	C261.989563,51.537636 262.570251,53.699627 263.415253,54.467106 
	C265.792877,56.626644 269.031433,57.957333 271.060425,60.352058 
	C273.714752,63.484821 278.370697,65.417313 275.653229,71.893547 
	C273.678009,76.600914 275.267303,82.803970 275.267303,88.340157 
	C275.849518,88.314835 276.431732,88.289520 277.013947,88.264198 
	C276.755005,85.623352 276.160187,82.959953 276.335541,80.348274 
	C276.497406,77.937614 277.485443,75.582420 278.109619,73.202805 
	C278.925964,73.362587 279.742279,73.522362 280.558624,73.682144 
	C276.778503,91.002594 274.916138,108.444397 276.030853,126.074577 
	C274.514130,145.314377 273.328094,164.587219 271.409485,183.786850 
	C267.803833,219.868240 263.876404,255.918640 259.860748,291.957214 
	C258.647247,302.847534 256.980682,313.710388 254.896500,324.464691 
	C254.368698,327.188049 251.819229,329.883514 249.552994,331.846191 
	C236.140823,343.462006 208.746384,343.734833 194.933395,332.529419 
	C189.743713,328.319427 189.880173,322.405212 190.209259,316.491394 
	C190.929153,303.554565 191.643646,290.617371 192.328766,277.678680 
	C192.388504,276.550415 192.215042,275.409821 192.056961,272.655670 
	C184.408096,277.746460 177.013153,281.644287 170.892136,286.998474 
	C163.043732,293.863586 154.866653,299.276123 144.343124,300.556885 
	C140.730377,300.996521 138.844772,303.255707 136.971222,306.385773 
	C130.164917,317.756683 123.233696,329.092896 115.571213,339.889771 
	C112.837593,343.741608 107.888657,346.021210 103.159119,349.023254 
	C99.286362,349.011688 95.068520,347.711670 93.350067,349.233704 
	C89.174004,352.932404 84.764366,351.700226 79.985336,352.005524 
	C79.960175,348.245026 78.226898,347.470520 74.902306,348.786865 
	C73.445183,349.363800 71.615990,349.001007 69.955750,349.064941 
	C69.955750,349.064941 69.982002,349.004761 69.985138,348.667480 
	C70.391060,347.195404 70.747429,346.041290 71.210289,344.931610 
	C71.635040,343.913269 72.174660,342.942871 72.663681,341.951355 
	C71.358521,341.953461 70.031090,341.805328 68.753716,341.994751 
	C67.064682,342.245300 65.414856,342.760193 63.748177,343.161438 
	C63.748177,343.161438 63.921658,343.069794 63.923019,342.749695 
	C64.170738,340.575043 64.417099,338.720520 64.650909,336.960449 
	C62.634232,337.844849 61.351227,338.407532 60.068222,338.970184 
	C60.068222,338.970184 60.004353,338.993866 60.062881,338.590515 
	C59.711010,336.184021 59.204384,334.194183 58.924587,332.172943 
	C58.743011,330.861206 58.737446,329.481293 58.926464,328.171387 
	C59.293011,325.631226 60.394703,323.081451 60.223557,320.602509 
	C59.815346,314.689758 56.401711,309.120758 59.053783,302.808746 
	C60.613583,299.096375 60.923203,294.874878 62.063869,290.960724 
	C62.425793,289.718842 63.655048,288.729706 63.763973,288.585144 
	C64.723358,282.990692 65.526833,278.305359 66.413956,273.132233 
	C68.907967,273.005768 71.336685,273.100677 73.667542,272.668243 
	C74.758011,272.465942 76.560242,271.143951 76.488518,270.503052 
	C76.198990,267.915955 76.123344,264.405151 74.475250,263.044830 
	C70.173660,259.494293 73.567039,258.050903 75.030167,256.582947 
	C74.628197,253.004791 74.288185,249.978088 73.948174,246.951401 
	C73.948174,246.951401 73.987518,247.004150 74.352722,246.925140 
	C75.106377,245.124863 75.494827,243.403610 75.883270,241.682358 
	C75.883270,241.682358 75.871292,241.323486 76.297836,240.975677 
	C77.054329,239.198929 77.384285,237.769974 77.714233,236.341034 
M265.215424,202.105164 
	C260.734283,206.165070 263.835938,210.864975 263.275391,215.255783 
	C263.767944,215.305466 264.260498,215.355164 264.753082,215.404861 
	C265.168701,210.936569 265.584351,206.468292 266.278687,201.891541 
	C266.185791,201.927689 266.092896,201.963837 265.215424,202.105164 
M169.812103,219.275696 
	C167.842209,225.221100 165.872299,231.166504 163.706665,237.702637 
	C172.810211,236.819855 181.186584,235.800797 189.593826,235.293228 
	C192.996414,235.087814 194.069824,234.020218 194.318741,230.633484 
	C196.063507,206.893555 198.047409,183.171310 199.907593,159.439697 
	C200.428314,152.796661 200.790665,146.141235 201.225677,139.491486 
	C200.712616,139.370132 200.199554,139.248779 199.686493,139.127426 
	C195.703140,146.724854 190.738937,153.978775 187.933655,161.988815 
	C181.403595,180.634293 175.913498,199.643967 169.812103,219.275696 
M169.500504,204.037537 
	C169.250870,202.099564 169.001221,200.161606 168.751587,198.223633 
	C165.602158,202.617325 166.942566,209.193420 169.976669,210.981125 
	C169.826462,208.959625 169.669113,206.841949 169.500504,204.037537 
M206.845947,130.202179 
	C203.086472,131.173996 201.900711,135.517471 204.554947,139.652786 
	C205.400421,136.591171 206.182281,133.759842 206.845947,130.202179 
M73.357430,338.206909 
	C75.513184,340.056610 77.162277,342.954193 80.775581,341.863068 
	C78.604546,339.973785 78.020149,335.471008 73.357430,338.206909 
z"/>
<path fill="#2376CD" opacity="1.000000" stroke="none" 
	d="
M73.654350,247.167160 
	C74.288185,249.978088 74.628197,253.004791 75.030167,256.582947 
	C73.567039,258.050903 70.173660,259.494293 74.475250,263.044830 
	C76.123344,264.405151 76.198990,267.915955 76.488518,270.503052 
	C76.560242,271.143951 74.758011,272.465942 73.667542,272.668243 
	C71.336685,273.100677 68.907967,273.005768 66.413956,273.132233 
	C65.526833,278.305359 64.723358,282.990692 63.763973,288.585144 
	C63.655048,288.729706 62.425793,289.718842 62.063869,290.960724 
	C60.923203,294.874878 60.613583,299.096375 59.053783,302.808746 
	C56.401711,309.120758 59.815346,314.689758 60.223557,320.602509 
	C60.394703,323.081451 59.293011,325.631226 58.926464,328.171387 
	C58.737446,329.481293 58.743011,330.861206 58.924587,332.172943 
	C59.204384,334.194183 59.711010,336.184021 60.077126,338.559570 
	C55.071297,333.093140 55.395012,325.979767 55.670547,319.084076 
	C56.324909,302.707733 60.601376,286.999969 65.357170,271.436829 
	C67.825897,263.358002 70.680328,255.397095 73.654350,247.167160 
z"/>
<path fill="#2579CA" opacity="1.000000" stroke="none" 
	d="
M276.211731,125.708618 
	C274.916138,108.444397 276.778503,91.002594 280.558624,73.682144 
	C279.742279,73.522362 278.925964,73.362587 278.109619,73.202805 
	C277.485443,75.582420 276.497406,77.937614 276.335541,80.348274 
	C276.160187,82.959953 276.755005,85.623352 277.013947,88.264198 
	C276.431732,88.289520 275.849518,88.314835 275.267303,88.340157 
	C275.267303,82.803970 273.678009,76.600914 275.653229,71.893547 
	C278.370697,65.417313 273.714752,63.484821 271.060425,60.352058 
	C269.031433,57.957333 265.792877,56.626644 263.415253,54.467106 
	C262.570251,53.699627 261.989563,51.537636 262.460632,50.603516 
	C265.550171,44.477421 262.819366,38.615166 261.518890,32.888371 
	C261.099854,31.043062 257.492981,29.921667 255.164566,28.347506 
	C255.167206,28.345015 256.007416,27.550642 256.895447,26.426044 
	C264.022430,29.839396 267.477936,35.592484 266.376923,43.599281 
	C265.950317,42.344368 265.848267,41.182564 265.746246,40.020756 
	C265.437378,40.091774 265.128510,40.162792 264.819641,40.233810 
	C265.253540,41.623589 265.687439,43.013367 266.121307,44.403149 
	C265.525513,47.108574 264.929749,49.813999 264.287689,52.729637 
	C267.241455,54.879719 270.694427,56.934975 273.584564,59.600513 
	C278.342468,63.988705 281.743011,69.149597 281.049774,76.169510 
	C279.431793,92.554085 277.937164,108.950844 276.211731,125.708618 
z"/>
<path fill="#2579CA" opacity="1.000000" stroke="none" 
	d="
M254.846252,24.709597 
	C249.099472,24.637789 242.572647,25.677210 237.357346,23.530451 
	C231.485840,21.113577 228.618301,19.793575 224.693420,23.309975 
	C221.841415,22.839922 219.304367,22.421776 216.346878,21.975460 
	C229.205917,16.911905 242.055527,18.622814 254.846252,24.709597 
z"/>
<path fill="#2376CD" opacity="1.000000" stroke="none" 
	d="
M70.114586,349.387756 
	C71.615990,349.001007 73.445183,349.363800 74.902306,348.786865 
	C78.226898,347.470520 79.960175,348.245026 79.985336,352.005524 
	C84.764366,351.700226 89.174004,352.932404 93.350067,349.233704 
	C95.068520,347.711670 99.286362,349.011688 102.815399,349.062256 
	C92.352623,353.911865 81.380737,355.448792 70.114586,349.387756 
z"/>
<path fill="#2376CD" opacity="1.000000" stroke="none" 
	d="
M63.824245,343.492065 
	C65.414856,342.760193 67.064682,342.245300 68.753716,341.994751 
	C70.031090,341.805328 71.358521,341.953461 72.663681,341.951355 
	C72.174660,342.942871 71.635040,343.913269 71.210289,344.931610 
	C70.747429,346.041290 70.391060,347.195404 69.961166,348.690125 
	C67.922813,347.307587 65.911560,345.565125 63.824245,343.492065 
z"/>
<path fill="#2579CA" opacity="1.000000" stroke="none" 
	d="
M199.640396,30.025518 
	C196.527863,32.969044 193.059891,35.936493 189.223022,38.894489 
	C192.331085,35.939838 195.808014,32.994640 199.640396,30.025518 
z"/>
<path fill="#2579CA" opacity="1.000000" stroke="none" 
	d="
M215.597260,21.947145 
	C216.967361,23.390654 217.980652,24.858574 219.617126,27.229269 
	C216.226883,26.393681 213.310989,25.675009 209.972198,24.907158 
	C211.446335,23.895836 213.343384,22.933697 215.597260,21.947145 
z"/>
<path fill="#2579CA" opacity="1.000000" stroke="none" 
	d="
M188.575562,38.984711 
	C189.330811,40.320061 190.050446,41.759827 190.131836,43.234810 
	C190.180695,44.119919 189.233109,45.060017 188.367004,45.987953 
	C188.000656,46.000507 188.007706,46.005333 187.952423,45.654716 
	C186.686523,44.956898 185.475891,44.609699 184.197479,44.195885 
	C184.129715,44.129272 183.993408,43.996834 183.993408,43.996830 
	C185.419342,42.365871 186.845291,40.734917 188.575562,38.984711 
z"/>
<path fill="#347BC5" opacity="1.000000" stroke="none" 
	d="
M177.997131,54.004063 
	C177.533630,54.003197 177.070129,54.002331 176.260345,53.968254 
	C177.376480,51.986908 178.838882,50.038776 180.638901,48.251945 
	C181.297729,48.943298 181.618942,49.473343 181.940155,50.003387 
	C181.941086,50.445732 181.942017,50.888084 181.611938,51.691826 
	C180.186340,52.703499 179.091736,53.353783 177.997131,54.004063 
z"/>
<path fill="#2579CA" opacity="1.000000" stroke="none" 
	d="
M182.009933,49.666779 
	C181.618942,49.473343 181.297729,48.943298 180.934448,48.092194 
	C181.741074,46.607857 182.589798,45.444572 183.715958,44.139061 
	C183.993408,43.996834 184.129715,44.129272 184.124527,44.536213 
	C185.080780,45.630440 186.042206,46.317722 187.001892,47.002617 
	C187.000153,47.000233 186.994965,46.996376 186.994965,46.996376 
	C186.256012,47.455914 185.551117,47.987926 184.768951,48.355515 
	C183.909653,48.759350 182.979187,49.011776 182.009933,49.666779 
z"/>
<path fill="#347BC5" opacity="1.000000" stroke="none" 
	d="
M148.576859,91.011375 
	C149.191895,92.597641 149.514969,94.326073 150.003494,96.939659 
	C148.446579,96.525620 147.382111,96.242538 145.992737,95.724701 
	C146.540176,94.044479 147.412537,92.599007 148.576859,91.011375 
z"/>
<path fill="#2376CD" opacity="1.000000" stroke="none" 
	d="
M60.172989,339.270813 
	C61.351227,338.407532 62.634232,337.844849 64.650909,336.960449 
	C64.417099,338.720520 64.170738,340.575043 63.853088,342.818481 
	C62.613785,341.995422 61.445770,340.783447 60.172989,339.270813 
z"/>
<path fill="#347BC5" opacity="1.000000" stroke="none" 
	d="
M164.984894,71.992538 
	C163.933197,72.349358 162.881500,72.706177 161.474792,73.069916 
	C162.195801,71.461540 163.271851,69.846260 164.711151,68.151520 
	C165.074402,68.072060 165.226166,68.219887 165.155685,68.589767 
	C165.051758,69.970612 165.018326,70.981575 164.984894,71.992538 
z"/>
<path fill="#347BC5" opacity="1.000000" stroke="none" 
	d="
M144.627518,97.056534 
	C144.627991,98.797401 146.300262,101.584160 142.227142,101.899734 
	C142.657013,100.311035 143.492981,98.757195 144.627518,97.056534 
z"/>
<path fill="#347BC5" opacity="1.000000" stroke="none" 
	d="
M155.795715,80.278069 
	C155.255829,81.705956 154.436646,83.301468 153.246490,84.903496 
	C153.755798,83.421898 154.636108,81.933800 155.795715,80.278069 
z"/>
<path fill="#2376CD" opacity="1.000000" stroke="none" 
	d="
M75.602821,241.913422 
	C75.494827,243.403610 75.106377,245.124863 74.328201,246.900467 
	C74.399765,245.351379 74.861069,243.747940 75.602821,241.913422 
z"/>
<path fill="#347BC5" opacity="1.000000" stroke="none" 
	d="
M158.997284,78.970276 
	C158.546188,78.985756 158.095093,79.001236 157.305817,79.000557 
	C157.759781,77.714226 158.551926,76.444046 159.644196,75.048660 
	C159.960144,75.691185 159.975983,76.458931 159.770111,77.714729 
	C159.278885,78.397003 159.095184,78.652832 158.997284,78.970276 
z"/>
<path fill="#347BC5" opacity="1.000000" stroke="none" 
	d="
M174.673065,55.083954 
	C174.197708,56.283779 173.422760,57.606632 172.281860,58.934975 
	C172.735092,57.695976 173.554291,56.451477 174.673065,55.083954 
z"/>
<path fill="#2579CA" opacity="1.000000" stroke="none" 
	d="
M203.619202,27.949162 
	C202.887390,28.627737 201.824890,29.330561 200.383362,30.015381 
	C201.099060,29.322721 202.193802,28.648066 203.619202,27.949162 
z"/>
<path fill="#2579CA" opacity="1.000000" stroke="none" 
	d="
M206.754547,26.136108 
	C206.261246,26.756575 205.448395,27.379530 204.284607,27.971905 
	C204.767441,27.340414 205.601227,26.739506 206.754547,26.136108 
z"/>
<path fill="#347BC5" opacity="1.000000" stroke="none" 
	d="
M166.773010,65.206085 
	C167.035217,65.812996 167.014648,66.539482 166.690948,67.640869 
	C166.000595,68.083809 165.613373,68.151848 165.226166,68.219887 
	C165.226166,68.219887 165.074402,68.072060 164.998581,67.998062 
	C165.445267,67.057945 165.967758,66.191811 166.773010,65.206085 
z"/>
<path fill="#347BC5" opacity="1.000000" stroke="none" 
	d="
M152.608582,85.016617 
	C152.463852,85.883842 152.027618,86.877167 151.226608,87.887756 
	C151.346924,86.984261 151.832001,86.063492 152.608582,85.016617 
z"/>
<path fill="#2376CD" opacity="1.000000" stroke="none" 
	d="
M77.451035,236.600479 
	C77.384285,237.769974 77.054329,239.198929 76.401031,240.828766 
	C76.447739,239.639755 76.817780,238.249847 77.451035,236.600479 
z"/>
<path fill="#2376CD" opacity="1.000000" stroke="none" 
	d="
M78.677750,233.057709 
	C78.748466,233.754791 78.569183,234.705719 78.075676,235.861267 
	C77.983559,235.147797 78.205650,234.229660 78.677750,233.057709 
z"/>
<path fill="#347BC5" opacity="1.000000" stroke="none" 
	d="
M169.820633,61.264992 
	C169.865768,61.667297 169.650406,62.198555 169.156891,62.836071 
	C169.105865,62.426205 169.333008,61.910076 169.820633,61.264992 
z"/>
<path fill="#347BC5" opacity="1.000000" stroke="none" 
	d="
M160.836914,73.277321 
	C160.877701,73.667847 160.666779,74.199875 160.183563,74.850616 
	C160.135910,74.452499 160.360565,73.935661 160.836914,73.277321 
z"/>
<path fill="#347BC5" opacity="1.000000" stroke="none" 
	d="
M139.889420,104.369949 
	C139.904434,104.710884 139.692673,105.216019 139.238388,105.865440 
	C139.218124,105.517876 139.440369,105.026009 139.889420,104.369949 
z"/>
<path fill="#347BC5" opacity="1.000000" stroke="none" 
	d="
M149.771942,89.180054 
	C149.824463,89.589912 149.614624,90.138412 149.121338,90.803192 
	C149.061798,90.385880 149.285675,89.852287 149.771942,89.180054 
z"/>
<path fill="#347BC5" opacity="1.000000" stroke="none" 
	d="
M140.753174,103.062538 
	C140.979507,103.308174 140.845673,103.593460 140.379974,103.942352 
	C140.285675,103.762199 140.400650,103.460953 140.753174,103.062538 
z"/>
<path fill="#347BC5" opacity="1.000000" stroke="none" 
	d="
M141.625275,101.917191 
	C141.736877,102.136314 141.593185,102.450127 141.208511,102.880249 
	C141.101685,102.668320 141.235825,102.340103 141.625275,101.917191 
z"/>
<path fill="#347BC5" opacity="1.000000" stroke="none" 
	d="
M170.754501,60.073223 
	C170.995224,60.344215 170.855896,60.629784 170.354858,60.947319 
	C170.257858,60.749275 170.384964,60.452110 170.754501,60.073223 
z"/>
<path fill="#347BC5" opacity="1.000000" stroke="none" 
	d="
M171.689346,58.980705 
	C171.792145,59.209488 171.630737,59.503922 171.230621,59.898338 
	C171.136322,59.680992 171.280746,59.363670 171.689346,58.980705 
z"/>
<path fill="#347BC5" opacity="1.000000" stroke="none" 
	d="
M168.664902,62.959484 
	C168.776428,63.192242 168.626022,63.495445 168.231949,63.895370 
	C168.126511,63.671371 168.264725,63.350651 168.664902,62.959484 
z"/>
<path fill="#347BC5" opacity="1.000000" stroke="none" 
	d="
M145.368103,95.819778 
	C145.523773,96.022758 145.460510,96.367401 145.147202,96.835701 
	C144.981171,96.626717 145.065155,96.294075 145.368103,95.819778 
z"/>
<path fill="#347BC5" opacity="1.000000" stroke="none" 
	d="
M167.746445,64.065582 
	C167.986282,64.347534 167.839630,64.633598 167.321075,64.940720 
	C167.228043,64.737190 167.364960,64.439827 167.746445,64.065582 
z"/>
<path fill="#347BC5" opacity="1.000000" stroke="none" 
	d="
M175.692749,53.979885 
	C175.784256,54.202568 175.614746,54.497360 175.201202,54.887543 
	C175.115356,54.672623 175.273529,54.362309 175.692749,53.979885 
z"/>
<path fill="#347BC5" opacity="1.000000" stroke="none" 
	d="
M150.656799,87.955345 
	C150.776932,88.172935 150.642303,88.480804 150.275940,88.905502 
	C150.163498,88.696754 150.282776,88.371185 150.656799,87.955345 
z"/>
<path fill="#347BC5" opacity="1.000000" stroke="none" 
	d="
M156.738434,79.045113 
	C156.974991,79.318176 156.830887,79.606102 156.331482,79.935997 
	C156.235840,79.738274 156.363037,79.432274 156.738434,79.045113 
z"/>
<path fill="#2579CA" opacity="1.000000" stroke="none" 
	d="
M208.749542,25.080206 
	C208.765823,25.321590 208.484818,25.573547 207.915466,25.854855 
	C207.902176,25.619732 208.177231,25.355255 208.749542,25.080206 
z"/>
<path fill="#FBFCFD" opacity="0" stroke="none" 
	d="
M169.907074,218.890900 
	C175.913498,199.643967 181.403595,180.634293 187.933655,161.988815 
	C190.738937,153.978775 195.703140,146.724854 199.686493,139.127426 
	C200.199554,139.248779 200.712616,139.370132 201.225677,139.491486 
	C200.790665,146.141235 200.428314,152.796661 199.907593,159.439697 
	C198.047409,183.171310 196.063507,206.893555 194.318741,230.633484 
	C194.069824,234.020218 192.996414,235.087814 189.593826,235.293228 
	C181.186584,235.800797 172.810211,236.819855 163.706665,237.702637 
	C165.872299,231.166504 167.842209,225.221100 169.907074,218.890900 
z"/>
<path fill="#1773DA" opacity="1.000000" stroke="none" 
	d="
M265.607727,202.052582 
	C265.584351,206.468292 265.168701,210.936569 264.753082,215.404861 
	C264.260498,215.355164 263.767944,215.305466 263.275391,215.255783 
	C263.835938,210.864975 260.734283,206.165070 265.607727,202.052582 
z"/>
<path fill="#1673DB" opacity="1.000000" stroke="none" 
	d="
M169.506134,204.380890 
	C169.669113,206.841949 169.826462,208.959625 169.976669,210.981125 
	C166.942566,209.193420 165.602158,202.617325 168.751587,198.223633 
	C169.001221,200.161606 169.250870,202.099564 169.506134,204.380890 
z"/>
<path fill="#1A72DA" opacity="1.000000" stroke="none" 
	d="
M206.905045,130.565353 
	C206.182281,133.759842 205.400421,136.591171 204.554947,139.652786 
	C201.900711,135.517471 203.086472,131.173996 206.905045,130.565353 
z"/>
<path fill="#1772D7" opacity="1.000000" stroke="none" 
	d="
M73.458405,337.869476 
	C78.020149,335.471008 78.604546,339.973785 80.775581,341.863068 
	C77.162277,342.954193 75.513184,340.056610 73.458405,337.869476 
z"/>
<path fill="#1773D6" opacity="1.000000" stroke="none" 
	d="
M158.996979,79.357697 
	C159.095184,78.652832 159.278885,78.397003 159.764236,78.098854 
	C164.312149,81.370583 161.155502,83.259880 158.077835,86.086868 
	C158.468307,83.391747 158.732483,81.568428 158.996979,79.357697 
z"/>
<path fill="#2579CA" opacity="1.000000" stroke="none" 
	d="
M178.189194,54.255440 
	C179.091736,53.353783 180.186340,52.703499 181.605927,52.023544 
	C180.747696,52.831524 179.564484,53.669170 178.189194,54.255440 
z"/>
<path fill="#1773D6" opacity="1.000000" stroke="none" 
	d="
M165.155685,68.589767 
	C165.613373,68.151848 166.000595,68.083809 166.684021,68.004318 
	C166.500580,69.243172 166.020950,70.493484 165.263092,71.868164 
	C165.018326,70.981575 165.051758,69.970612 165.155685,68.589767 
z"/>
<path fill="#1773DA" opacity="1.000000" stroke="none" 
	d="
M266.139343,201.945770 
	C266.092896,201.963837 266.185791,201.927689 266.139343,201.945770 
z"/>
<path fill="#2579CA" opacity="1.000000" stroke="none" 
	d="
M187.997742,45.996712 
	C187.895477,46.317478 187.708313,46.579224 187.214142,46.887268 
	C186.994965,46.996376 187.000153,47.000233 187.112457,46.784569 
	C187.424332,46.295734 187.685303,46.107876 188.007706,46.005333 
	C188.007706,46.005333 188.000656,46.000507 187.997742,45.996712 
z"/>
<path fill="#0674D9" opacity="1.000000" stroke="none" 
	d="
M266.095001,44.360275 
	C265.687439,43.013367 265.253540,41.623589 264.819641,40.233810 
	C265.128510,40.162792 265.437378,40.091774 265.746246,40.020756 
	C265.848267,41.182564 265.950317,42.344368 266.110596,43.907074 
	C266.168854,44.307972 266.068695,44.317398 266.095001,44.360275 
z"/>
<path fill="#0674D9" opacity="1.000000" stroke="none" 
	d="
M187.952423,45.654716 
	C187.685303,46.107876 187.424332,46.295734 187.114212,46.786953 
	C186.042206,46.317722 185.080780,45.630440 184.192291,44.602829 
	C185.475891,44.609699 186.686523,44.956898 187.952423,45.654716 
z"/>
</svg>